# xmcd
#
# Track frame offsets: 
#        150
#        19880
#        42387
#        52475
#        68327
#        83892
#        97592
#        119580
#        135612
#        152622
#        172427
#        191840
#        204725
#
# Disc length: 2932 seconds
#
# Revision: 4
# Processed by: cddbd v1.5.2PL0 Copyright (c) Steve Scherf et al.
# Submitted via: ExactAudioCopy v0.99pb5
#
DISCID=bc0b720d
DTITLE=C.J. Chenier - Step It Up
DYEAR=2001
DGENRE=Other
TTITLE0=Zydeghost
TTITLE1=It's About Time
TTITLE2=Everybody Needs A Little Monkey Business
TTITLE3=The Right To Walk Away
TTITLE4=Coochie Coo Wi'Chou
TTITLE5=Eat More Crawfish
TTITLE6=Let's Agree To Disagree
TTITLE7=It's Alright
TTITLE8=Road  Dog
TTITLE9=The Power Of Love
TTITLE10=Zydeco Mardi Gras
TTITLE11=Turn Around And Say Goodbye
TTITLE12=Johnny Can't Dance
EXTD=YEAR: 2001
EXTT0=
EXTT1=
EXTT2=
EXTT3=
EXTT4=
EXTT5=
EXTT6=
EXTT7=
EXTT8=
EXTT9=
EXTT10=
EXTT11=
EXTT12=
PLAYORDER=
